<svg class="svg-icon" style="width: 1em; height: 1em;vertical-align: middle;fill: currentColor;overflow: hidden;" viewBox="0 0 1024 1024" version="1.1" xmlns="http://www.w3.org/2000/svg"><path d="M605.067636 626.757818l-23.249454 13.451637V744.727273h-46.545455v-124.346182l75.473455-75.473455A23.249455 23.249455 0 1 0 577.838545 512L512 577.815273 446.184727 512a23.249455 23.249455 0 1 0-32.907636 32.907636L488.727273 620.381091V744.727273h-46.545455v-104.517818l-23.226182-13.451637a186.391273 186.391273 0 0 1-89.460363-198.609454c15.732364-79.709091 84.875636-141.102545 165.818182-148.154182a186.205091 186.205091 0 0 1 109.754181 346.763636M512 232.727273C383.488 232.727273 279.272727 336.919273 279.272727 465.454545a232.634182 232.634182 0 0 0 116.363637 201.588364V768a23.272727 23.272727 0 0 0 23.272727 23.272727h186.181818a23.272727 23.272727 0 0 0 23.272727-23.272727v-100.957091A232.587636 232.587636 0 0 0 744.727273 465.454545c0-128.535273-104.192-232.727273-232.727273-232.727272" fill="#21A3DD" /><path d="M442.181818 814.545455l139.636364 0 0 23.272727-139.636364 0 0-23.272727Z" fill="#21A3DD" /><path d="M465.454545 861.090909l93.09091 0 0 23.272727-93.09091 0 0-23.272727Z" fill="#21A3DD" /><path d="M512 139.636364a11.636364 11.636364 0 0 1 11.636364 11.636363v46.545455a11.636364 11.636364 0 1 1-23.272728 0v-46.545455A11.636364 11.636364 0 0 1 512 139.636364z m263.307636 109.056a11.636364 11.636364 0 0 1 0 16.453818l-32.930909 32.930909a11.636364 11.636364 0 1 1-16.453818-16.453818l32.930909-32.930909a11.636364 11.636364 0 0 1 16.453818 0zM884.363636 512a11.636364 11.636364 0 0 1-11.636363 11.636364h-46.545455a11.636364 11.636364 0 1 1 0-23.272728h46.545455a11.636364 11.636364 0 0 1 11.636363 11.636364z m-109.056 263.307636a11.636364 11.636364 0 0 1-16.453818 0l-32.930909-32.930909a11.636364 11.636364 0 1 1 16.453818-16.453818l32.930909 32.930909a11.636364 11.636364 0 0 1 0 16.453818z m-526.615272 0a11.636364 11.636364 0 0 1 0-16.453818l32.930909-32.930909a11.636364 11.636364 0 1 1 16.453818 16.453818l-32.930909 32.930909a11.636364 11.636364 0 0 1-16.453818 0zM139.636364 512a11.636364 11.636364 0 0 1 11.636363-11.636364h46.545455a11.636364 11.636364 0 1 1 0 23.272728h-46.545455A11.636364 11.636364 0 0 1 139.636364 512zM248.692364 248.692364a11.636364 11.636364 0 0 1 16.453818 0l32.930909 32.930909a11.636364 11.636364 0 1 1-16.453818 16.453818L248.692364 265.146182a11.636364 11.636364 0 0 1 0-16.453818z" fill="#21A3DD" /></svg>